<svg width="398" height="398" viewBox="0 0 398 398" fill="none" xmlns="http://www.w3.org/2000/svg">
<ellipse cx="152.565" cy="212.436" rx="15.2596" ry="33.0752" transform="rotate(40.741 152.565 212.436)" fill="#1E1E2E"/>
<path d="M162.104 17V70.8958H236.729V17H261.604V70.8958H327.938V137.229H381.833V162.104H327.938V236.729H381.833V261.604H327.938V327.938H261.604V381.833H236.729V327.938H162.104V381.833H137.229V327.938H70.8958V261.604H17V236.729H70.8958V162.104H17V137.229H70.8958V70.8958H137.229V17H162.104ZM95.7708 303.062H303.062V95.7708H95.7708V303.062Z" fill="#1E1E2E" stroke="white" stroke-width="4"/>
<ellipse cx="155.917" cy="233.917" rx="6.5" ry="7.5" fill="#1E1E2E"/>
<rect x="152.26" y="236" width="57.0573" height="75.4366" transform="rotate(3.23762 152.26 236)" fill="#1E1E2E"/>
<path d="M159.666 187.377L213.087 188.951L208.847 242.226L155.426 240.652L159.666 187.377Z" fill="#1E1E2E"/>
<path d="M131.95 216.766L164.666 245.95L135.482 278.666L102.766 249.482L131.95 216.766Z" fill="#1E1E2E"/>
<ellipse cx="129" cy="280" rx="50" ry="39" fill="#1E1E2E"/>
<ellipse cx="185.5" cy="193.5" rx="27.5" ry="26.5" fill="#1E1E2E"/>
<ellipse cx="222.114" cy="164.853" rx="33" ry="21.5" transform="rotate(-18.4846 222.114 164.853)" fill="#1E1E2E"/>
<circle cx="252" cy="157" r="16" fill="#1E1E2E"/>
<path d="M215 140.004L261.59 143.843L268.5 143.889" stroke="white" stroke-width="5.37374"/>
<line x1="265.683" y1="143.859" x2="267.027" y2="169.384" stroke="white" stroke-width="5.37374"/>
<path d="M215 189.5L208 303" stroke="white" stroke-width="5.37374"/>
<path d="M268.5 167L212.576 190.2" stroke="white" stroke-width="5.37374"/>
<circle cx="191.5" cy="157.5" r="22.5" fill="#1E1E2E"/>
<ellipse cx="179" cy="135" rx="8" ry="10" fill="#1E1E2E"/>
<path d="M170.629 172.524L170.629 147.5L174.659 121.474" stroke="white" stroke-width="5.37374"/>
<ellipse cx="208.5" cy="145" rx="12.5" ry="14" fill="#1E1E2E"/>
<path d="M176 123L196.949 140.607" stroke="white" stroke-width="4"/>
<ellipse cx="205" cy="145" rx="11" ry="24" fill="#1E1E2E"/>
<path d="M202.05 118.227L222 141.929" stroke="white" stroke-width="5.37374"/>
<path d="M192 137.5L202 115.5" stroke="white" stroke-width="5.37374"/>
<path d="M171.5 170.5L95.5 253.5" stroke="white" stroke-width="5.37374"/>
</svg>
